<svg width="170" height="170" viewBox="0 0 170 170" fill="none" xmlns="http://www.w3.org/2000/svg">
<path d="M64.7859 83.725H67.8955C68.1098 83.725 68.2833 83.5497 68.2833 83.3354V67.7858C68.2833 67.5733 68.1098 67.3979 67.8955 67.3979H64.7859C64.5717 67.3979 64.3964 67.5733 64.3964 67.7858V83.3354C64.3964 83.5497 64.5717 83.725 64.7859 83.725ZM65.1738 80.6154H65.9512V82.9476H65.1738V80.6154ZM66.7285 76.7267V74.3945H67.5059V76.7267H66.7285ZM67.5059 77.5041V79.8363H66.7285V77.5041H67.5059ZM66.7285 73.6171V71.2849H67.5059V73.6171H66.7285ZM65.9512 73.6171H65.1738V71.2849H65.9512V73.6171ZM65.9512 74.3945V76.7267H65.1738V74.3945H65.9512ZM65.9512 77.5041V79.8363H65.1738V77.5041H65.9512ZM66.7285 82.9476V80.6154H67.5059V82.9476H66.7285ZM67.5059 70.5075H66.7285V68.1753H67.5059V70.5075ZM65.9512 68.1753V70.5075H65.1738V68.1753H65.9512Z" fill="#FFFFEE"/>
<path d="M69.4503 83.725H72.5599C72.7742 83.725 72.9477 83.5497 72.9477 83.3354V67.7858C72.9477 67.5733 72.7742 67.3979 72.5599 67.3979H69.4503C69.2361 67.3979 69.0608 67.5733 69.0608 67.7858V83.3354C69.0608 83.5497 69.2361 83.725 69.4503 83.725ZM69.8382 80.6154H70.6156V82.9476H69.8382V80.6154ZM71.3929 76.7267V74.3945H72.1703V76.7267H71.3929ZM72.1703 77.5041V79.8363H71.3929V77.5041H72.1703ZM71.3929 73.6171V71.2849H72.1703V73.6171H71.3929ZM70.6156 73.6171H69.8382V71.2849H70.6156V73.6171ZM70.6156 74.3945V76.7267H69.8382V74.3945H70.6156ZM70.6156 77.5041V79.8363H69.8382V77.5041H70.6156ZM71.3929 82.9476V80.6154H72.1703V82.9476H71.3929ZM72.1703 70.5075H71.3929V68.1753H72.1703V70.5075ZM70.6156 68.1753V70.5075H69.8382V68.1753H70.6156Z" fill="#FFFFEE"/>
<path d="M74.1146 83.725H77.2242C77.4385 83.725 77.6138 83.5497 77.6138 83.3354V67.7858C77.6138 67.5733 77.4385 67.3979 77.2242 67.3979H74.1146C73.9004 67.3979 73.7268 67.5733 73.7268 67.7858V83.3354C73.7268 83.5497 73.9004 83.725 74.1146 83.725ZM74.5042 80.6154H75.2816V82.9476H74.5042V80.6154ZM76.059 76.7267V74.3945H76.8364V76.7267H76.059ZM76.8364 77.5041V79.8363H76.059V77.5041H76.8364ZM76.059 73.6171V71.2849H76.8364V73.6171H76.059ZM75.2816 73.6171H74.5042V71.2849H75.2816V73.6171ZM75.2816 74.3945V76.7267H74.5042V74.3945H75.2816ZM75.2816 77.5041V79.8363H74.5042V77.5041H75.2816ZM76.059 82.9476V80.6154H76.8364V82.9476H76.059ZM76.8364 70.5075H76.059V68.1753H76.8364V70.5075ZM75.2816 68.1753V70.5075H74.5042V68.1753H75.2816Z" fill="#FFFFEE"/>
<path d="M83.4435 73.6171H81.1113C80.8988 73.6171 80.7235 73.7925 80.7235 74.0067V77.1163C80.7235 77.3306 80.8988 77.5041 81.1113 77.5041H83.4435C83.6578 77.5041 83.8331 77.3306 83.8331 77.1163V74.0067C83.8331 73.7925 83.6578 73.6171 83.4435 73.6171ZM83.0557 76.7267H81.5009V74.3945H83.0557V76.7267Z" fill="#FFFFEE"/>
<path d="M88.8869 73.6171H86.5547C86.3405 73.6171 86.1651 73.7925 86.1651 74.0067V77.1163C86.1651 77.3306 86.3405 77.5041 86.5547 77.5041H88.8869C89.0994 77.5041 89.2747 77.3306 89.2747 77.1163V74.0067C89.2747 73.7925 89.0994 73.6171 88.8869 73.6171ZM88.4973 76.7267H86.9425V74.3945H88.4973V76.7267Z" fill="#FFFFEE"/>
<path d="M83.4435 78.2815H81.1113C80.8988 78.2815 80.7235 78.4568 80.7235 78.6711V81.7806C80.7235 81.9949 80.8988 82.1702 81.1113 82.1702H83.4435C83.6578 82.1702 83.8331 81.9949 83.8331 81.7806V78.6711C83.8331 78.4568 83.6578 78.2815 83.4435 78.2815ZM83.0557 81.3928H81.5009V79.0589H83.0557V81.3928Z" fill="#FFFFEE"/>
<path d="M88.8869 78.2815H86.5547C86.3405 78.2815 86.1651 78.4568 86.1651 78.6711V81.7806C86.1651 81.9949 86.3405 82.1702 86.5547 82.1702H88.8869C89.0994 82.1702 89.2747 81.9949 89.2747 81.7806V78.6711C89.2747 78.4568 89.0994 78.2815 88.8869 78.2815ZM88.4973 81.3928H86.9425V79.0589H88.4973V81.3928Z" fill="#FFFFEE"/>
<path d="M92.7739 83.725H95.8835C96.0977 83.725 96.2713 83.5497 96.2713 83.3354V67.7858C96.2713 67.5733 96.0977 67.3979 95.8835 67.3979H92.7739C92.5596 67.3979 92.3843 67.5733 92.3843 67.7858V83.3354C92.3843 83.5497 92.5596 83.725 92.7739 83.725ZM93.1617 80.6154H93.9391V82.9476H93.1617V80.6154ZM94.7165 76.7267V74.3945H95.4939V76.7267H94.7165ZM95.4939 77.5041V79.8363H94.7165V77.5041H95.4939ZM94.7165 73.6171V71.2849H95.4939V73.6171H94.7165ZM93.9391 73.6171H93.1617V71.2849H93.9391V73.6171ZM93.9391 74.3945V76.7267H93.1617V74.3945H93.9391ZM93.9391 77.5041V79.8363H93.1617V77.5041H93.9391ZM94.7165 82.9476V80.6154H95.4939V82.9476H94.7165ZM95.4939 70.5075H94.7165V68.1753H95.4939V70.5075ZM93.9391 68.1753V70.5075H93.1617V68.1753H93.9391Z" fill="#FFFFEE"/>
<path d="M97.4383 83.725H100.548C100.762 83.725 100.937 83.5497 100.937 83.3354V67.7858C100.937 67.5733 100.762 67.3979 100.548 67.3979H97.4383C97.224 67.3979 97.0505 67.5733 97.0505 67.7858V83.3354C97.0505 83.5497 97.224 83.725 97.4383 83.725ZM97.8279 80.6154H98.6053V82.9476H97.8279V80.6154ZM99.3827 76.7267V74.3945H100.16V76.7267H99.3827ZM100.16 77.5041V79.8363H99.3827V77.5041H100.16ZM99.3827 73.6171V71.2849H100.16V73.6171H99.3827ZM98.6053 73.6171H97.8279V71.2849H98.6053V73.6171ZM98.6053 74.3945V76.7267H97.8279V74.3945H98.6053ZM98.6053 77.5041V79.8363H97.8279V77.5041H98.6053ZM99.3827 82.9476V80.6154H100.16V82.9476H99.3827ZM100.16 70.5075H99.3827V68.1753H100.16V70.5075ZM98.6053 68.1753V70.5075H97.8279V68.1753H98.6053Z" fill="#FFFFEE"/>
<path d="M102.103 83.725H105.212C105.427 83.725 105.602 83.5497 105.602 83.3354V67.7858C105.602 67.5733 105.427 67.3979 105.212 67.3979H102.103C101.888 67.3979 101.715 67.5733 101.715 67.7858V83.3354C101.715 83.5497 101.888 83.725 102.103 83.725ZM102.492 80.6154H103.27V82.9476H102.492V80.6154ZM104.047 76.7267V74.3945H104.824V76.7267H104.047ZM104.824 77.5041V79.8363H104.047V77.5041H104.824ZM104.047 73.6171V71.2849H104.824V73.6171H104.047ZM103.27 73.6171H102.492V71.2849H103.27V73.6171ZM103.27 74.3945V76.7267H102.492V74.3945H103.27ZM103.27 77.5041V79.8363H102.492V77.5041H103.27ZM104.047 82.9476V80.6154H104.824V82.9476H104.047ZM104.824 70.5075H104.047V68.1753H104.824V70.5075ZM103.27 68.1753V70.5075H102.492V68.1753H103.27Z" fill="#FFFFEE"/>
<mask id="mask0_106_2" style="mask-type:luminance" maskUnits="userSpaceOnUse" x="61" y="38" width="48" height="49">
<path d="M61.2868 38.6272H108.547V86.9072H61.2868V38.6272Z" fill="white"/>
</mask>
<g mask="url(#mask0_106_2)">
<path d="M108.322 44.0736C108.536 44.0736 108.711 43.8983 108.711 43.6841V42.1293C108.711 41.9168 108.536 41.7415 108.322 41.7415H97.8279V41.3519C97.8279 41.1394 98.0015 40.9641 98.2158 40.9641C98.43 40.9641 98.6053 40.7887 98.6053 40.5745V39.0197C98.6053 38.8072 98.43 38.6319 98.2158 38.6319H71.7825C71.5683 38.6319 71.393 38.8072 71.393 39.0197V40.5745C71.393 40.7887 71.5683 40.9641 71.7825 40.9641C71.9968 40.9641 72.1703 41.1394 72.1703 41.3519V41.7415H61.6764C61.4621 41.7415 61.2868 41.9168 61.2868 42.1293V43.6841C61.2868 43.8983 61.4621 44.0736 61.6764 44.0736H62.0642V61.9555H61.6764C61.4621 61.9555 61.2868 62.1308 61.2868 62.3433V63.8981C61.2868 64.1124 61.4621 64.2877 61.6764 64.2877C61.8889 64.2877 62.0642 64.463 62.0642 64.6755V85.667C62.0642 85.8813 62.2395 86.0566 62.4538 86.0566H78.3913V86.4444C78.3913 86.6587 78.5666 86.834 78.7791 86.834H91.2192C91.4317 86.834 91.607 86.6587 91.607 86.4444V86.0566H107.545C107.759 86.0566 107.934 85.8813 107.934 85.667V64.6755C107.934 64.463 108.109 64.2877 108.322 64.2877C108.536 64.2877 108.711 64.1124 108.711 63.8981V62.3433C108.711 62.1308 108.536 61.9555 108.322 61.9555H107.934V44.0736H108.322ZM107.934 43.2962H97.0506V42.5188H107.934V43.2962ZM98.6053 46.2606L99.1685 45.9791C99.3048 45.91 99.3827 45.7736 99.3827 45.6284H101.715C101.715 45.7736 101.802 45.91 101.927 45.9791L102.492 46.2606V59.7685L101.927 60.0501C101.793 60.1192 101.715 60.2537 101.715 60.4007H99.3827C99.3827 60.2537 99.2942 60.1192 99.1685 60.0501L98.6053 59.7685V46.2606ZM103.27 57.2911H104.047V58.8459H103.27V57.2911ZM104.825 57.2911H105.602V58.8459H104.825V57.2911ZM105.602 56.5137H104.825V54.9572H105.602V56.5137ZM104.047 56.5137H103.27V54.9572H104.047V56.5137ZM103.27 49.5154H104.047V51.0702H103.27V49.5154ZM104.825 49.5154H105.602V51.0702H104.825V49.5154ZM105.602 48.738H104.825V47.1832H105.602V48.738ZM104.047 48.738H103.27V47.1832H104.047V48.738ZM97.8279 57.2911H97.0506V53.4024H97.8279V57.2911ZM90.8296 61.9555V42.5188H96.2714V61.9555H90.8296ZM73.7269 42.5188H79.1687V61.9555H73.7269V42.5188ZM79.9461 42.5188H90.0522V61.9555H79.9461V42.5188ZM97.8279 52.625H97.0506V48.738H97.8279V52.625ZM97.8279 39.4093V40.1867H72.1703V39.4093H97.8279ZM72.8805 40.9641H97.1178C97.0789 41.0898 97.0506 41.2173 97.0506 41.3519V41.7415H72.9477V41.3519C72.9477 41.2173 72.93 41.0898 72.8805 40.9641ZM62.0642 42.5188H72.9477V43.2962H62.0642V42.5188ZM62.8416 44.0736H72.9477V61.9555H62.8416V44.0736ZM107.934 62.7329V63.5103H62.0642V62.7329H107.934ZM90.8296 86.0566H79.1687V85.2792H90.8296V86.0566ZM89.459 70.0801L86.5938 71.3339C86.5743 71.3038 86.5548 71.2843 86.5353 71.2648L88.5753 68.8848C88.926 69.2337 89.227 69.6321 89.459 70.0801ZM79.9461 82.947V72.8391H84.6105V82.947H79.9461ZM83.9003 72.0617C84.0668 71.6048 84.4936 71.2843 84.9983 71.2843C85.5047 71.2843 85.9315 71.6048 86.0979 72.0617H83.9003ZM85.3878 72.8391H90.0522V82.947H85.3878V72.8391ZM86.9037 72.0617C86.9037 72.0528 86.9037 72.0528 86.9037 72.0422L89.7707 70.7884C89.9159 71.1975 90.0044 71.6243 90.0434 72.0617H86.9037ZM85.9421 70.7495C85.9032 70.73 85.8731 70.7105 85.8341 70.7017L86.5938 67.6594C87.0985 67.8241 87.5553 68.0684 87.9733 68.3783L85.9421 70.7495ZM85.0868 70.5069C85.0567 70.5069 85.0284 70.5069 84.9983 70.5069C84.9699 70.5069 84.9416 70.5069 84.9115 70.5069L84.1536 67.4646C84.4263 67.4168 84.7078 67.3973 84.9983 67.3973C85.2905 67.3973 85.572 67.4256 85.8447 67.4646L85.0868 70.5069ZM83.4045 67.6594L84.1642 70.7017C84.1252 70.7211 84.0951 70.73 84.0562 70.7495L82.0162 68.3695C82.4341 68.0684 82.8998 67.8241 83.4045 67.6594ZM81.423 68.8848L83.463 71.2648C83.4435 71.2843 83.424 71.3144 83.4045 71.3339L80.5393 70.0801C80.7713 69.6321 81.0723 69.2337 81.423 68.8848ZM80.2276 70.7884L83.0946 72.0422C83.0946 72.0528 83.0946 72.0528 83.0946 72.0617H79.9549C79.9939 71.6154 80.0913 71.1869 80.2276 70.7884ZM79.9461 83.7244H90.0522V84.5018H79.9461V83.7244ZM107.157 85.2792H91.607V84.8896C91.607 84.6753 91.4317 84.5018 91.2192 84.5018H90.8296V72.4513C90.8296 70.7017 90.0522 69.1274 88.8286 68.0578C88.818 68.049 88.8091 68.0295 88.7985 68.0189C88.7896 68.01 88.779 67.9994 88.7595 67.9905C87.7395 67.1352 86.4273 66.6093 84.9983 66.6093C81.7824 66.6093 79.1687 69.2248 79.1687 72.4406V84.4912H78.7791C78.5666 84.4912 78.3913 84.6665 78.3913 84.8807V85.2686H62.8416V65.8425H107.157V85.2792ZM107.157 64.6755V65.0651H62.8416V64.6755C62.8416 64.5409 62.8221 64.4134 62.7743 64.2877H107.224C107.176 64.4134 107.157 64.5409 107.157 64.6755ZM107.157 61.9555H97.0506V58.0685H97.8279V60.0111C97.8279 60.1564 97.9147 60.2927 98.0405 60.3618L98.6053 60.6433V60.7885C98.6053 61.0028 98.7789 61.1781 98.9932 61.1781H102.103C102.317 61.1781 102.492 61.0028 102.492 60.7885V60.6433L103.055 60.3618C103.192 60.2927 103.27 60.1564 103.27 60.0111V59.6233H105.99C106.204 59.6233 106.379 59.448 106.379 59.2337V54.5694C106.379 54.3551 106.204 54.1798 105.99 54.1798H103.27V51.8476H105.99C106.204 51.8476 106.379 51.6741 106.379 51.4598V46.7954C106.379 46.5811 106.204 46.4058 105.99 46.4058H103.27V46.018C103.27 45.871 103.181 45.7347 103.055 45.6674L102.492 45.3858V45.2406C102.492 45.0263 102.317 44.851 102.103 44.851H98.9932C98.7789 44.851 98.6053 45.0263 98.6053 45.2406V45.3858L98.0405 45.6674C97.9041 45.7347 97.8279 45.871 97.8279 46.018V47.9606H97.0506V44.0736H107.157V61.9555Z" fill="#FFFFEE"/>
</g>
<path d="M99.7705 48.3509C99.9848 48.3509 100.16 48.1755 100.16 47.9613V47.5735H100.937V47.9613C100.937 48.1755 101.111 48.3509 101.325 48.3509C101.54 48.3509 101.715 48.1755 101.715 47.9613V46.4065C101.715 46.1922 101.54 46.0187 101.325 46.0187C101.111 46.0187 100.937 46.1922 100.937 46.4065V46.7961H100.16V46.4065C100.16 46.1922 99.9848 46.0187 99.7705 46.0187C99.5562 46.0187 99.3827 46.1922 99.3827 46.4065V47.9613C99.3827 48.1755 99.5562 48.3509 99.7705 48.3509Z" fill="#FFFFEE"/>
<path d="M100.548 51.0708C101.189 51.0708 101.715 50.5467 101.715 49.9056C101.715 49.2646 101.189 48.7386 100.548 48.7386C99.9068 48.7386 99.3827 49.2646 99.3827 49.9056C99.3827 50.5467 99.9068 51.0708 100.548 51.0708ZM100.548 49.516C100.762 49.516 100.937 49.6913 100.937 49.9056C100.937 50.1181 100.762 50.2934 100.548 50.2934C100.334 50.2934 100.16 50.1181 100.16 49.9056C100.16 49.6913 100.334 49.516 100.548 49.516Z" fill="#FFFFEE"/>
<path d="M99.7705 52.2378H100.16V53.403C100.16 53.6173 100.334 53.7926 100.548 53.7926C100.762 53.7926 100.937 53.6173 100.937 53.403V52.2378H101.325C101.54 52.2378 101.715 52.0625 101.715 51.8482C101.715 51.6357 101.54 51.4604 101.325 51.4604H99.7705C99.5562 51.4604 99.3827 51.6357 99.3827 51.8482C99.3827 52.0625 99.5562 52.2378 99.7705 52.2378Z" fill="#FFFFEE"/>
<path d="M99.7705 56.9022H101.325C101.54 56.9022 101.715 56.7268 101.715 56.5143C101.715 56.3001 101.54 56.1248 101.325 56.1248H100.16V55.93H101.325C101.54 55.93 101.715 55.7547 101.715 55.5422C101.715 55.3279 101.54 55.1526 101.325 55.1526H100.16V54.9578H101.325C101.54 54.9578 101.715 54.7842 101.715 54.57C101.715 54.3557 101.54 54.1804 101.325 54.1804H99.7705C99.5562 54.1804 99.3827 54.3557 99.3827 54.57V56.5143C99.3827 56.7268 99.5562 56.9022 99.7705 56.9022Z" fill="#FFFFEE"/>
<path d="M99.7705 59.6239H101.325C101.54 59.6239 101.715 59.4486 101.715 59.2344C101.715 59.0201 101.54 58.8465 101.325 58.8465H100.16V57.6796C100.16 57.4653 99.9848 57.2917 99.7705 57.2917C99.5562 57.2917 99.3827 57.4653 99.3827 57.6796V59.2344C99.3827 59.4486 99.5562 59.6239 99.7705 59.6239Z" fill="#FFFFEE"/>
<path d="M67.1181 54.1804H64.0085C63.7943 54.1804 63.619 54.3557 63.619 54.57V59.2344C63.619 59.4486 63.7943 59.6239 64.0085 59.6239H67.1181C67.3306 59.6239 67.5059 59.4486 67.5059 59.2344V54.57C67.5059 54.3557 67.3306 54.1804 67.1181 54.1804ZM66.7285 56.5143H65.9511V54.9578H66.7285V56.5143ZM65.1737 54.9578V56.5143H64.3964V54.9578H65.1737ZM64.3964 57.2917H65.1737V58.8465H64.3964V57.2917ZM65.9511 58.8465V57.2917H66.7285V58.8465H65.9511Z" fill="#FFFFEE"/>
<path d="M71.7825 54.1804H68.6729C68.4586 54.1804 68.2833 54.3557 68.2833 54.57V59.2344C68.2833 59.4486 68.4586 59.6239 68.6729 59.6239H71.7825C71.9968 59.6239 72.1703 59.4486 72.1703 59.2344V54.57C72.1703 54.3557 71.9968 54.1804 71.7825 54.1804ZM71.3929 56.5143H70.6155V54.9578H71.3929V56.5143ZM69.8381 54.9578V56.5143H69.0607V54.9578H69.8381ZM69.0607 57.2917H69.8381V58.8465H69.0607V57.2917ZM70.6155 58.8465V57.2917H71.3929V58.8465H70.6155Z" fill="#FFFFEE"/>
<path d="M67.1181 46.4065H64.0085C63.7943 46.4065 63.619 46.5818 63.619 46.7961V51.4604C63.619 51.6747 63.7943 51.8483 64.0085 51.8483H67.1181C67.3306 51.8483 67.5059 51.6747 67.5059 51.4604V46.7961C67.5059 46.5818 67.3306 46.4065 67.1181 46.4065ZM66.7285 48.7387H65.9511V47.1839H66.7285V48.7387ZM65.1737 47.1839V48.7387H64.3964V47.1839H65.1737ZM64.3964 49.5161H65.1737V51.0709H64.3964V49.5161ZM65.9511 51.0709V49.5161H66.7285V51.0709H65.9511Z" fill="#FFFFEE"/>
<path d="M71.7825 46.4065H68.6729C68.4586 46.4065 68.2833 46.5818 68.2833 46.7961V51.4604C68.2833 51.6747 68.4586 51.8483 68.6729 51.8483H71.7825C71.9968 51.8483 72.1703 51.6747 72.1703 51.4604V46.7961C72.1703 46.5818 71.9968 46.4065 71.7825 46.4065ZM71.3929 48.7387H70.6155V47.1839H71.3929V48.7387ZM69.8381 47.1839V48.7387H69.0607V47.1839H69.8381ZM69.0607 49.5161H69.8381V51.0709H69.0607V49.5161ZM70.6155 51.0709V49.5161H71.3929V51.0709H70.6155Z" fill="#FFFFEE"/>
<path d="M78.0017 46.4065H74.8921C74.6779 46.4065 74.5043 46.5818 74.5043 46.7961V51.4604C74.5043 51.6747 74.6779 51.8483 74.8921 51.8483H78.0017C78.216 51.8483 78.3913 51.6747 78.3913 51.4604V46.7961C78.3913 46.5818 78.216 46.4065 78.0017 46.4065ZM77.6139 48.7387H76.8365V47.1839H77.6139V48.7387ZM76.0591 47.1839V48.7387H75.2817V47.1839H76.0591ZM75.2817 49.5161H76.0591V51.0709H75.2817V49.5161ZM76.8365 51.0709V49.5161H77.6139V51.0709H76.8365Z" fill="#FFFFEE"/>
<path d="M78.0017 54.1804H74.8921C74.6779 54.1804 74.5043 54.3557 74.5043 54.57V59.2344C74.5043 59.4486 74.6779 59.6239 74.8921 59.6239H78.0017C78.216 59.6239 78.3913 59.4486 78.3913 59.2344V54.57C78.3913 54.3557 78.216 54.1804 78.0017 54.1804ZM77.6139 56.5143H76.8365V54.9578H77.6139V56.5143ZM76.0591 54.9578V56.5143H75.2817V54.9578H76.0591ZM75.2817 57.2917H76.0591V58.8465H75.2817V57.2917ZM76.8365 58.8465V57.2917H77.6139V58.8465H76.8365Z" fill="#FFFFEE"/>
<path d="M95.1061 46.4065H91.9965C91.7823 46.4065 91.607 46.5818 91.607 46.7961V51.4604C91.607 51.6747 91.7823 51.8483 91.9965 51.8483H95.1061C95.3204 51.8483 95.4939 51.6747 95.4939 51.4604V46.7961C95.4939 46.5818 95.3204 46.4065 95.1061 46.4065ZM94.7165 48.7387H93.9392V47.1839H94.7165V48.7387ZM93.1618 47.1839V48.7387H92.3844V47.1839H93.1618ZM92.3844 49.5161H93.1618V51.0709H92.3844V49.5161ZM93.9392 51.0709V49.5161H94.7165V51.0709H93.9392Z" fill="#FFFFEE"/>
<path d="M95.1061 54.1804H91.9965C91.7823 54.1804 91.607 54.3557 91.607 54.57V59.2344C91.607 59.4486 91.7823 59.6239 91.9965 59.6239H95.1061C95.3204 59.6239 95.4939 59.4486 95.4939 59.2344V54.57C95.4939 54.3557 95.3204 54.1804 95.1061 54.1804ZM94.7165 56.5143H93.9392V54.9578H94.7165V56.5143ZM93.1618 54.9578V56.5143H92.3844V54.9578H93.1618ZM92.3844 57.2917H93.1618V58.8465H92.3844V57.2917ZM93.9392 58.8465V57.2917H94.7165V58.8465H93.9392Z" fill="#FFFFEE"/>
<path d="M87.3321 44.0743H82.666C82.4535 44.0743 82.2782 44.2496 82.2782 44.4639V50.6831C82.2782 50.8973 82.4535 51.0709 82.666 51.0709H87.3321C87.5446 51.0709 87.7199 50.8973 87.7199 50.6831V44.4639C87.7199 44.2496 87.5446 44.0743 87.3321 44.0743ZM86.9425 47.1839H85.3878V44.8517H86.9425V47.1839ZM84.6104 44.8517V47.1839H83.0556V44.8517H84.6104ZM83.0556 47.9613H84.6104V50.2935H83.0556V47.9613ZM85.3878 50.2935V47.9613H86.9425V50.2935H85.3878Z" fill="#FFFFEE"/>
<path d="M87.3321 53.403H82.666C82.4535 53.403 82.2782 53.5784 82.2782 53.7926V60.0118C82.2782 60.2261 82.4535 60.4014 82.666 60.4014H87.3321C87.5446 60.4014 87.7199 60.2261 87.7199 60.0118V53.7926C87.7199 53.5784 87.5446 53.403 87.3321 53.403ZM86.9425 56.5144H85.3878V54.1804H86.9425V56.5144ZM84.6104 54.1804V56.5144H83.0556V54.1804H84.6104ZM83.0556 57.2918H84.6104V59.624H83.0556V57.2918ZM85.3878 59.624V57.2918H86.9425V59.624H85.3878Z" fill="#FFFFEE"/>
<mask id="mask1_106_2" style="mask-type:luminance" maskUnits="userSpaceOnUse" x="99" y="66" width="17" height="27">
<path d="M99.7334 66.64H115.6V92.186H99.7334V66.64Z" fill="white"/>
</mask>
<g mask="url(#mask1_106_2)">
<path fill-rule="evenodd" clip-rule="evenodd" d="M100.096 91.8673C100.096 91.8673 103.771 92.0072 107.449 92.1117C109.012 92.1559 110.578 92.1896 111.858 92.2126C113.587 92.2462 114.8 92.2569 114.8 92.2569C115.014 92.2569 115.189 92.0816 115.189 91.8673C115.189 91.8673 115.212 90.27 115.2 87.8847C115.191 86.1918 115.159 84.104 115.124 81.9099C115.092 79.9336 115.049 77.8742 115.009 75.9351C114.906 71.0653 114.8 66.9711 114.8 66.9711C114.8 66.9711 114.693 71.0653 114.591 75.9351C114.548 77.8742 114.507 79.9336 114.476 81.9099C114.44 84.104 114.408 86.1918 114.399 87.8847C114.391 89.5758 114.399 90.8721 114.405 91.483C113.914 91.4883 112.999 91.5007 111.858 91.522C110.578 91.5468 109.012 91.5786 107.449 91.6229C103.771 91.7274 100.096 91.8673 100.096 91.8673Z" fill="#FFF6E9"/>
</g>
<mask id="mask2_106_2" style="mask-type:luminance" maskUnits="userSpaceOnUse" x="54" y="66" width="16" height="27">
<path d="M54.0228 66.64H69.36V92.186H54.0228V66.64Z" fill="white"/>
</mask>
<g mask="url(#mask2_106_2)">
<path fill-rule="evenodd" clip-rule="evenodd" d="M69.3405 91.8673C69.3405 91.8673 65.6678 91.7274 61.9898 91.6229C60.4244 91.5786 58.8607 91.5468 57.5786 91.522C56.4382 91.5007 55.5227 91.4883 55.034 91.483C55.0393 90.8721 55.0481 89.5758 55.0393 87.8847C55.0304 86.1918 54.9985 84.104 54.9631 81.9099C54.9312 79.9336 54.8905 77.8742 54.848 75.9351C54.7453 71.0653 54.6391 66.9711 54.6391 66.9711C54.6391 66.9711 54.5328 71.0653 54.4301 75.9351C54.3894 77.8742 54.3469 79.9336 54.315 81.9099C54.2796 84.104 54.2459 86.1918 54.2388 87.8847C54.2265 90.27 54.2495 91.8673 54.2495 91.8673C54.2495 92.0816 54.4248 92.2569 54.6391 92.2569C54.6391 92.2569 55.8503 92.2462 57.5786 92.2126C58.8607 92.1896 60.4244 92.1559 61.9898 92.1117C65.6678 92.0072 69.3405 91.8673 69.3405 91.8673Z" fill="#FFF6E9"/>
</g>
<mask id="mask3_106_2" style="mask-type:luminance" maskUnits="userSpaceOnUse" x="114" y="31" width="2" height="37">
<path d="M114.24 31.326H115.6V67.0933H114.24V31.326Z" fill="white"/>
</mask>
<g mask="url(#mask3_106_2)">
<path fill-rule="evenodd" clip-rule="evenodd" d="M114.8 66.9712C114.8 66.9712 114.858 65.6802 114.934 63.5871C114.982 62.197 115.044 60.458 115.099 58.5083C115.122 57.607 115.143 56.6631 115.161 55.6874C115.177 54.7701 115.193 53.8245 115.2 52.8665C115.205 51.7508 115.202 50.6157 115.193 49.4806C115.177 47.7682 115.143 46.0541 115.111 44.4037C115.078 42.608 115.039 40.8885 115.001 39.3249C114.893 34.8801 114.8 31.7085 114.8 31.7085C114.8 31.7085 114.706 34.8801 114.598 39.3249C114.561 40.8885 114.522 42.608 114.488 44.4037C114.456 46.0541 114.422 47.7682 114.406 49.4806C114.398 50.6157 114.394 51.7508 114.399 52.8665C114.406 53.8245 114.421 54.7701 114.438 55.6874C114.454 56.6631 114.476 57.607 114.5 58.5083C114.555 60.458 114.617 62.197 114.665 63.5871C114.741 65.6802 114.8 66.9712 114.8 66.9712Z" fill="#FFF6E9"/>
</g>
<mask id="mask4_106_2" style="mask-type:luminance" maskUnits="userSpaceOnUse" x="54" y="31" width="2" height="37">
<path d="M54.0228 31.326H55.3066V67.0933H54.0228V31.326Z" fill="white"/>
</mask>
<g mask="url(#mask4_106_2)">
<path fill-rule="evenodd" clip-rule="evenodd" d="M54.6391 66.9712C54.6391 66.9712 54.6975 65.6802 54.7736 63.5871C54.8215 62.197 54.8834 60.458 54.9383 58.5083C54.9631 57.607 54.9844 56.6631 55.0003 55.6874C55.018 54.7701 55.0322 53.8245 55.0393 52.8665C55.0446 51.7508 55.041 50.6157 55.0322 49.4806C55.0163 47.7682 54.9826 46.0541 54.9507 44.4037C54.9171 42.608 54.8781 40.8885 54.8392 39.3249C54.7329 34.8801 54.6391 31.7085 54.6391 31.7085C54.6391 31.7085 54.5452 34.8801 54.4372 39.3249C54.4 40.8885 54.361 42.608 54.3274 44.4037C54.2955 46.0541 54.2619 47.7682 54.2459 49.4806C54.2371 50.6157 54.2335 51.7508 54.2389 52.8665C54.2459 53.8245 54.2619 54.7701 54.2778 55.6874C54.2955 56.6631 54.3168 57.607 54.3398 58.5083C54.3929 60.458 54.4549 62.197 54.5045 63.5871C54.5806 65.6802 54.6391 66.9712 54.6391 66.9712Z" fill="#FFF6E9"/>
</g>
<mask id="mask5_106_2" style="mask-type:luminance" maskUnits="userSpaceOnUse" x="54" y="31" width="62" height="2">
<path d="M54.4 31.326H115.903V32.1867H54.4V31.326Z" fill="white"/>
</mask>
<g mask="url(#mask5_106_2)">
<path fill-rule="evenodd" clip-rule="evenodd" d="M115.715 31.7087C115.715 31.7087 113.477 31.6538 109.852 31.583C107.445 31.5351 104.431 31.4749 101.058 31.4254C99.4961 31.4006 97.8598 31.3811 96.1704 31.3651C94.582 31.3492 92.9457 31.335 91.2847 31.3297C89.3545 31.3226 87.3889 31.3262 85.4232 31.335C82.4571 31.3492 79.4874 31.3829 76.6275 31.4112C73.5197 31.4448 70.5412 31.482 67.8335 31.5174C60.1375 31.6201 54.6408 31.7087 54.6408 31.7087C54.6408 31.7087 60.1375 31.799 67.8335 31.9017C70.5412 31.9371 73.5197 31.9743 76.6275 32.0062C79.4874 32.0363 82.4571 32.0699 85.4232 32.0841C87.3889 32.093 89.3545 32.0965 91.2847 32.0894C92.9457 32.0841 94.582 32.0699 96.1722 32.054C97.8598 32.0381 99.4961 32.0168 101.058 31.9938C104.431 31.9424 107.445 31.884 109.852 31.8362C113.477 31.7654 115.715 31.7087 115.715 31.7087Z" fill="#FFF6E9"/>
</g>
<path d="M46.0318 114.482C46.1239 114.482 46.2089 114.482 46.2372 114.454C47.1226 114.305 48.3055 113.299 48.9572 112.654C50.8697 110.678 52.2297 108.907 53.2001 107.257C54.1776 105.635 54.7655 104.162 55.1197 102.83C55.5022 101.534 55.828 100.237 55.7997 98.849C55.7997 97.7582 55.3818 96.4336 54.1776 96.4336C54.0289 96.4336 53.8801 96.4619 53.6747 96.4903C51.0468 97.1065 48.3622 100.74 47.0943 103.127C45.8264 105.394 44.6789 107.724 43.6447 110.119C43.5597 110.267 43.4959 110.444 43.4393 110.586C43.3826 110.763 43.2905 110.94 43.2055 111.089C43.2055 111.146 43.1418 111.181 43.0568 111.181C42.993 111.181 42.9647 111.117 42.9647 111.032C43.0284 110.678 43.0851 110.324 43.1418 109.942C43.1701 109.587 43.2339 109.233 43.3189 108.851C43.8218 106.605 44.5584 104.452 45.2668 102.299C45.4439 101.739 45.6209 101.179 45.8264 100.62C46.0034 100.089 46.1805 99.5573 46.3576 98.9978C46.5064 98.5515 46.6551 98.084 46.7401 97.6094C46.8322 97.2269 46.6834 96.9932 46.478 96.9932C46.2372 96.9648 46.0955 97.0782 46.0318 97.404C45.798 98.3178 45.5359 99.2315 45.2101 100.117C44.8843 101.002 44.5584 101.888 44.2609 102.802C43.7651 104.452 43.2622 106.046 42.8159 107.696C42.3768 109.318 42.143 110.912 42.0509 112.562C42.0226 112.711 42.0226 112.86 42.0226 112.98C42.0226 113.122 42.0509 113.271 42.0793 113.419C42.1714 113.625 42.3201 113.745 42.5255 113.745C42.5822 113.745 42.6743 113.717 42.7876 113.625C42.9647 113.448 43.1134 113.214 43.2622 112.888C43.6447 112.031 44.0272 111.181 44.3814 110.324C45.5359 107.845 46.6834 105.394 48.0718 103.007C49.4247 100.677 51.3159 98.084 53.9084 97.2269C53.9651 97.1986 54.0572 97.1986 54.1422 97.1986C54.7939 97.1986 55.0276 98.1973 55.0276 98.764C55.0276 100.854 54.4114 102.717 53.6109 104.629C53.2922 105.366 52.8176 105.925 52.1376 106.343C51.1672 106.931 49.3114 108.376 48.1001 109.524C46.8605 110.678 45.3872 112.506 45.3234 113.653C45.2951 114.156 45.5926 114.482 46.0318 114.482ZM46.3859 113.568C46.3576 113.597 46.3009 113.597 46.2372 113.54C46.1522 113.512 46.1522 113.448 46.1805 113.363C46.2372 113.157 46.3293 112.945 46.4497 112.739C47.7743 110.735 49.4247 109.113 51.4293 107.724C51.493 107.696 51.5497 107.639 51.6064 107.583C51.6701 107.547 51.7551 107.519 51.8472 107.519H51.9322C52.0243 107.639 51.9605 107.76 51.8755 107.845C50.9618 109.233 48.008 113.094 46.3859 113.568Z" fill="#FFF6E9"/>
<path d="M57.0069 113.009C57.269 113.009 57.5665 112.917 57.8286 112.768C58.2182 112.506 58.5086 112.18 58.714 111.741C58.9832 111.181 59.0399 110.622 58.9265 110.055C58.8344 109.559 58.8061 109.559 59.3657 109.467C59.9819 109.41 60.5486 109.262 61.1082 109.056C61.6394 108.851 62.199 108.674 62.7586 108.468C63.0207 108.376 63.0844 108.199 62.9924 107.994C62.9074 107.845 62.7586 107.76 62.6099 107.76L62.1353 107.873C61.8732 107.965 61.604 108.079 61.3419 108.171C61.0799 108.256 60.7824 108.376 60.5132 108.468C59.9536 108.645 59.4224 108.73 58.8628 108.73H57.949C57.7436 108.759 57.5665 108.964 57.6515 109.169C57.7436 109.382 57.8286 109.559 57.949 109.764C58.3953 110.444 58.2465 111.061 57.864 111.677C57.5949 112.152 57.3044 112.208 56.8299 112.208C56.4474 112.123 56.2419 111.769 56.2419 111.209C56.2419 110.884 56.2703 110.586 56.3553 110.352C56.4757 109.849 56.6811 109.347 56.9503 108.851C57.269 108.348 57.5382 107.845 58.2182 107.724C58.4236 107.696 58.4236 107.547 58.3953 107.342C58.3599 107.193 58.2749 107.08 58.0694 107.052C57.9207 107.052 57.8003 107.08 57.6869 107.137C56.5324 107.583 55.5619 109.793 55.4699 111.004C55.4415 111.238 55.4699 111.5 55.5336 111.769C55.6824 112.562 56.2986 113.009 57.0069 113.009Z" fill="#FFF6E9"/>
<path d="M62.3188 114.985C62.4888 114.985 62.6376 114.893 62.7296 114.744C62.9351 114.425 63.1121 114.156 63.2609 113.83C63.523 113.334 63.7638 112.86 63.9976 112.385C64.203 111.918 64.4367 111.443 64.6776 110.969C65.0317 110.296 65.4426 109.644 66.0021 109.084C66.1226 108.936 66.2359 108.787 66.5051 108.787C66.5901 108.907 66.6538 109.028 66.7105 109.141C66.7671 109.262 66.8592 109.382 66.9442 109.495C67.2701 109.942 67.6526 110.147 68.1555 110.147C68.9842 110.147 70.2167 109.169 70.7834 108.61C70.8684 108.525 70.9605 108.404 71.0455 108.227C71.1021 108.114 71.0738 107.994 70.9605 107.873C70.8684 107.817 70.8117 107.788 70.7196 107.788C70.663 107.788 70.6346 107.788 70.6063 107.817C70.4576 107.902 70.3371 107.994 70.2167 108.114C69.7209 108.525 68.6867 109.382 68.1555 109.382C67.8934 109.382 67.6526 109.205 67.4471 108.851C67.3905 108.759 67.3267 108.645 67.2984 108.497C67.2417 108.376 67.1851 108.256 67.1213 108.171C66.9726 107.937 66.7955 107.817 66.5617 107.817C66.4413 107.817 66.328 107.845 66.2076 107.902C65.2938 108.468 64.5855 109.467 64.118 110.381L62.9634 112.711L62.9351 112.683H62.9634C62.8146 112.357 62.9067 112.067 62.9917 111.741C63.2326 110.855 63.5513 109.942 63.9409 109.028C64.203 108.433 64.4651 107.845 64.7059 107.257C64.7909 107.023 64.8546 106.811 64.8546 106.605C64.883 106.457 64.8192 106.372 64.6421 106.315H64.5571C64.4367 106.315 64.3517 106.343 64.288 106.4C64.203 106.52 64.1463 106.669 64.0542 106.811C63.0201 109.169 62.1984 111.117 61.8159 113.745C61.7876 113.894 61.7876 114.007 61.7876 114.128C61.8159 114.277 61.8159 114.397 61.8159 114.51C61.8442 114.744 61.9647 114.893 62.1701 114.957C62.1984 114.957 62.2267 114.957 62.2267 114.985C62.2551 114.985 62.2834 114.985 62.3188 114.985Z" fill="#FFF6E9"/>
<path d="M70.6331 114.185C70.7818 114.185 70.8952 114.128 71.0156 114.007C71.3414 113.745 71.4618 113.42 71.6673 113.065C72.1348 112.244 72.6093 111.387 73.0839 110.53C73.4664 109.85 73.8773 109.205 74.3802 108.61C74.4652 108.525 74.5289 108.405 74.6139 108.256C74.706 108.142 74.791 108.114 74.9114 108.142C75.0602 108.171 75.1452 108.291 75.1168 108.433C75.0885 108.582 75.0602 108.73 75.0602 108.851C75.0602 109.29 75.0248 109.736 74.9964 110.175C74.9964 110.65 74.9964 111.061 75.2018 111.5C75.3506 111.712 75.4993 111.797 75.7048 111.797C75.7331 111.797 75.8252 111.769 75.9456 111.741C76.151 111.649 76.3564 111.5 76.5052 111.358C76.6468 111.21 76.8239 111.032 76.9727 110.884C77.1781 110.678 77.4189 110.445 77.6243 110.232C77.8298 110.027 78.0635 109.821 78.3327 109.672C78.4814 109.765 78.5948 109.913 78.6585 110.055C78.6868 110.204 78.7718 110.352 78.8639 110.501C79.1898 111.004 79.6006 111.238 80.1035 111.238C80.3373 111.238 80.571 111.21 80.7764 111.117C81.1943 110.912 81.5485 110.707 81.8389 110.473L83.6098 108.964C83.7585 108.851 83.9073 108.702 84.0206 108.553C84.2331 108.348 84.2331 108.171 84.056 107.994C83.9923 107.902 83.9073 107.845 83.7868 107.845C83.7018 107.845 83.6098 107.902 83.461 107.994C83.4327 108.079 83.376 108.114 83.3477 108.142C82.7243 108.702 82.0443 109.29 81.3714 109.85C81.1023 110.055 80.486 110.473 80.1035 110.473C79.9264 110.473 79.7493 110.381 79.6006 110.204C79.4802 110.055 79.3952 109.913 79.3031 109.701C79.2748 109.616 79.2464 109.524 79.2181 109.439C79.1898 109.347 79.126 109.262 79.0693 109.17C78.9489 108.907 78.7435 108.787 78.4814 108.787C78.446 108.787 78.3327 108.822 78.1839 108.851C78.0068 108.936 77.8298 109.056 77.6243 109.205C77.4756 109.347 77.2985 109.524 77.1498 109.672C76.9727 109.821 76.7956 109.998 76.6468 110.147L76.0873 110.678C76.0589 110.678 76.0589 110.678 76.0306 110.707C75.8818 110.707 75.7968 110.65 75.7968 110.53C75.7968 110.445 75.7968 110.324 75.7968 110.204C75.7685 110.09 75.7685 109.97 75.7685 109.85C75.7968 109.616 75.7968 109.382 75.8252 109.141C75.8535 108.907 75.8535 108.674 75.8535 108.405C75.8818 108.05 75.8818 107.696 75.7331 107.37C75.6481 107.108 75.471 106.96 75.2018 106.96C75.1168 106.96 74.9964 106.988 74.8831 107.052C74.0827 107.611 73.4381 108.497 72.9352 109.29C72.666 109.701 72.4323 110.119 72.1985 110.53C71.9577 110.969 71.7239 111.387 71.4902 111.797C71.4618 111.826 71.4264 111.89 71.3981 111.946C71.3698 112.003 71.3414 112.031 71.2493 112.031C71.1927 112.031 71.136 112.031 71.1077 112.003C71.136 111.946 71.136 111.89 71.136 111.826C71.1077 111.769 71.1077 111.712 71.136 111.62C71.6389 109.262 72.3118 106.903 73.346 104.75C73.4027 104.601 73.4664 104.48 73.5514 104.339C73.6152 104.218 73.6152 104.07 73.5798 103.921C73.5514 103.836 73.4027 103.687 73.3177 103.687C73.2893 103.687 73.2256 103.715 73.1406 103.744C72.4889 104.07 71.1927 108.32 70.9589 109.085C70.5127 110.586 70.1585 112.152 70.1585 113.717C70.1585 113.951 70.2789 114.1 70.4843 114.156C70.5127 114.185 70.5764 114.185 70.6331 114.185Z" fill="#FFF6E9"/>
<path d="M84.0548 117.755C84.2035 117.755 84.3169 117.698 84.4373 117.577C84.6427 117.344 84.8198 117.075 84.9685 116.784C85.174 116.402 85.351 116.047 85.5281 115.665C85.6769 115.275 85.854 114.921 86.031 114.539C86.4135 113.689 86.8244 112.86 87.2069 112.003C87.5894 111.181 87.979 110.352 88.3615 109.524C89.7144 106.726 91.9315 103.035 94.439 101.151C94.524 101.123 94.5806 101.059 94.6727 101.002C94.7577 100.974 94.8498 100.917 94.9348 100.882H94.9986C95.0836 100.882 95.1402 100.917 95.1402 101.002C95.1402 101.123 95.1402 101.236 95.1402 101.357C95.1402 101.477 95.1119 101.59 95.0836 101.682C94.9631 102.504 94.7294 103.305 94.4956 104.098C94.1131 105.366 93.6952 106.634 93.3411 107.902C93.1073 108.822 92.9302 109.701 92.8452 110.735C92.8736 110.827 92.8736 110.94 92.8736 111.061C92.8452 111.181 92.8736 111.295 92.9019 111.415C92.9869 111.918 93.2277 112.152 93.5819 112.152C93.759 112.152 93.9361 112.095 94.1131 111.975C94.3752 111.826 94.6444 111.592 94.9065 111.266C95.2323 110.855 95.5581 110.445 95.8486 110.055C96.5852 109.028 97.329 108.114 98.1506 107.193C98.2994 107.08 98.4198 106.96 98.5331 106.811C98.6536 106.697 98.8023 106.577 98.9511 106.492C99.0927 106.4 99.2131 106.343 99.3052 106.343C99.6594 106.343 99.7161 106.903 99.8011 107.165C99.8365 107.434 99.8931 107.668 99.9215 107.902C99.9498 108.171 100.014 108.433 100.042 108.702C100.099 109.056 100.155 109.41 100.219 109.765C100.276 110.147 100.332 110.501 100.424 110.884C100.601 111.712 101.366 112.832 102.224 112.832C102.457 112.832 102.755 112.74 103.109 112.598C103.754 112.244 106.353 109.028 106.587 108.291C106.615 108.142 106.587 108.05 106.438 107.994C106.41 107.965 106.325 107.937 106.233 107.937C106.148 107.937 106.112 107.937 106.084 107.965C105.999 107.994 105.935 108.05 105.85 108.142C105.114 109.141 104.526 109.942 104.079 110.558C103.64 111.181 103.314 111.535 103.166 111.649C102.84 111.918 102.549 112.031 102.28 112.031C101.338 112.031 101.104 110.473 100.927 109.616L100.573 107.023C100.424 106.223 100.184 105.543 99.2415 105.543C98.9156 105.571 98.6536 105.692 98.3844 105.925C97.9452 106.315 97.5911 106.669 97.2369 107.108C96.4152 108.022 95.7352 108.936 94.9986 109.913C94.7294 110.296 94.4036 110.65 94.0848 111.004C94.0211 111.089 93.9361 111.146 93.844 111.146C93.7873 111.146 93.759 111.146 93.7306 111.117C93.6386 111.061 93.6102 110.94 93.6102 110.792C93.6102 110.119 93.759 109.495 93.9077 108.879C94.2265 107.547 94.5806 106.28 95.0269 104.983C95.3527 103.949 95.6431 102.95 95.8486 101.916C95.9406 101.477 95.969 101.002 95.884 100.563C95.7636 100.089 95.4661 99.9683 95.0269 99.9683C94.9348 99.9966 94.8498 100.032 94.7577 100.06C94.6727 100.089 94.5806 100.145 94.4956 100.174C91.2798 102.327 88.744 106.811 87.1219 110.296C86.796 111.032 86.4419 111.741 86.116 112.477C85.7902 113.214 85.436 113.951 85.1173 114.687C85.0535 114.836 84.9969 114.985 84.9402 115.134C84.8481 115.275 84.7915 115.424 84.7348 115.573C84.6994 115.601 84.671 115.665 84.6427 115.722C84.6144 115.778 84.5577 115.807 84.4656 115.807C84.3806 115.807 84.3169 115.778 84.3452 115.722C84.3452 115.63 84.3452 115.573 84.3452 115.516C84.3452 115.396 84.3806 115.247 84.409 115.042C84.6427 113.157 85.0252 111.358 85.5848 109.587C85.9673 108.291 86.3852 106.988 86.8244 105.72C87.2423 104.452 87.6531 103.156 88.064 101.86C88.2694 101.236 88.4465 100.648 88.6236 100.032C88.7723 99.437 88.9777 98.8491 89.2115 98.2612C89.3036 98.0558 89.2752 97.8787 89.0698 97.7583C89.0415 97.7299 89.0061 97.7299 88.9211 97.7299C88.8006 97.7299 88.6873 97.7866 88.5669 97.9353C88.4748 98.0841 88.3898 98.2612 88.3331 98.4099C88.2694 98.587 88.2127 98.7641 88.1561 98.9058L86.2931 104.806C85.4715 107.406 84.6144 109.913 84.0548 112.598C83.7856 113.894 83.5235 115.134 83.5519 116.515C83.5519 116.664 83.5519 116.784 83.5519 116.933C83.5519 117.075 83.5802 117.223 83.6085 117.372C83.6723 117.641 83.814 117.755 84.0548 117.755Z" fill="#FFF6E9"/>
<path d="M106.117 111.946C106.499 111.946 107.002 111.535 107.264 111.294C108.001 110.622 108.653 109.913 109.333 109.113C109.418 109.028 109.538 108.907 109.623 108.787C109.715 108.674 109.864 108.582 110.069 108.497C109.864 109.29 109.687 110.055 109.687 110.855C109.687 111.415 109.921 111.712 110.424 111.712C110.537 111.712 110.629 111.712 110.686 111.677C111.925 111.472 114.022 109.495 114.879 108.645C114.907 108.61 114.964 108.553 114.992 108.525C115.021 108.497 115.021 108.468 115.056 108.433C115.113 108.227 115.084 108.079 114.936 107.994C114.879 107.937 114.815 107.902 114.73 107.902C114.702 107.902 114.666 107.937 114.581 107.965C114.489 108.022 114.404 108.079 114.348 108.142C114.256 108.227 114.171 108.291 114.079 108.376C113.816 108.582 113.576 108.787 113.37 108.992C113.136 109.205 112.903 109.439 112.634 109.644C112.279 109.97 111.897 110.204 111.543 110.444C111.281 110.586 111.011 110.707 110.749 110.827C110.714 110.855 110.686 110.855 110.629 110.855C110.509 110.855 110.452 110.763 110.452 110.586C110.452 109.318 111.366 107.165 111.925 106.046C111.982 105.897 112.046 105.784 112.131 105.635C112.194 105.514 112.251 105.394 112.308 105.252C112.4 104.983 112.371 104.778 112.159 104.657C112.074 104.629 112.017 104.601 111.982 104.601C111.897 104.601 111.776 104.657 111.628 104.806C111.543 104.898 111.486 105.012 111.422 105.104C111.337 105.224 111.281 105.337 111.189 105.429C111.011 105.663 110.834 105.897 110.686 106.138C110.509 106.372 110.331 106.605 110.154 106.811C110.041 106.959 109.949 107.052 109.892 107.052C109.864 107.052 109.772 106.988 109.623 106.903C109.333 106.669 109.035 106.549 108.738 106.549C108.419 106.549 108.093 106.669 107.767 106.931C107.562 107.08 107.413 107.193 107.328 107.314C106.443 108.199 105.465 109.942 105.465 111.238C105.494 111.712 105.734 111.946 106.117 111.946ZM106.379 110.884C106.379 110.855 106.379 110.855 106.351 110.855L106.322 110.827C106.556 109.559 107.151 108.497 108.065 107.696C108.206 107.547 108.561 107.342 108.773 107.342C108.915 107.342 109.035 107.406 109.184 107.491C109.333 107.583 109.361 107.724 109.304 107.902C109.269 107.994 109.212 108.022 109.184 108.05C108.384 109.028 107.59 109.998 106.648 110.792C106.584 110.855 106.499 110.884 106.379 110.884Z" fill="#FFF6E9"/>
<path d="M114.994 116.579C115.469 116.579 116.028 116.161 116.29 115.807C117.232 114.716 118.295 113.271 119.272 111.946C120.094 110.827 121.185 109.318 121.78 108.61C121.836 108.553 121.865 108.497 121.865 108.433C121.957 108.256 121.921 108.114 121.78 107.994C121.688 107.965 121.631 107.937 121.574 107.937C121.539 107.937 121.539 107.937 121.511 107.937C121.482 107.965 121.482 107.965 121.454 107.965C121.305 108.022 121.185 108.114 121.1 108.199C121.008 108.319 120.894 108.433 120.802 108.553C119.952 109.41 117.353 113.299 116.113 114.864C115.964 115.042 115.823 115.219 115.674 115.396C115.525 115.544 115.348 115.665 115.079 115.693C114.64 115.339 114.789 114.808 114.817 114.362C114.902 113.334 115.022 112.385 115.256 111.415C115.646 109.701 117.176 105.012 117.856 103.51C118.004 103.127 118.295 102.95 118.713 102.922L125.052 102.362C125.201 102.327 125.314 102.327 125.435 102.299C125.555 102.299 125.669 102.27 125.817 102.242C125.938 102.214 125.994 102.093 125.994 101.944C125.966 101.739 125.874 101.654 125.761 101.654H124.698C123.869 101.739 122.984 101.831 122.014 101.888C121.043 101.973 120.158 102.065 119.329 102.15C119.301 102.15 119.244 102.15 119.18 102.15C119.124 102.185 119.067 102.185 119.003 102.185C118.89 102.185 118.769 102.15 118.621 102.122C118.621 101.973 118.649 101.831 118.713 101.711C118.741 101.619 118.798 101.505 118.826 101.413C119.209 100.62 119.598 99.8549 119.917 99.0544C120.066 98.7924 120.094 98.5515 120.066 98.4099C120.009 98.2611 119.917 98.1974 119.804 98.1974C119.598 98.1974 119.386 98.3744 119.18 98.7286C119.031 98.9694 118.89 99.2032 118.769 99.4369C118.621 99.6778 118.5 99.9115 118.359 100.145L117.558 101.916C117.409 102.242 117.176 102.391 116.821 102.419C116.319 102.476 115.787 102.539 115.256 102.596C114.725 102.653 114.201 102.717 113.669 102.802C113.521 102.83 113.372 102.858 113.223 102.894C113.103 102.922 112.989 102.979 112.841 103.007C112.692 103.035 112.664 103.156 112.692 103.333C112.72 103.418 112.784 103.482 112.897 103.51C112.989 103.538 113.074 103.538 113.223 103.538C113.457 103.538 113.726 103.482 113.96 103.453C114.342 103.418 114.76 103.361 115.171 103.304C115.554 103.248 115.964 103.184 116.347 103.156H116.588C116.942 103.156 116.97 103.304 116.821 103.744C116.616 104.247 116.467 104.721 116.262 105.281C115.291 107.937 114.052 111.974 114.052 114.836C114.052 115.516 114.229 116.579 114.994 116.579Z" fill="#FFF6E9"/>
<path d="M122.635 113.242C124.668 113.242 127.763 110.232 129.18 108.73C129.3 108.61 129.385 108.525 129.414 108.433C129.506 108.291 129.477 108.142 129.329 107.994C129.272 107.937 129.208 107.902 129.123 107.902C129.06 107.902 128.975 107.937 128.882 107.994C128.797 108.079 128.705 108.171 128.62 108.256C128.535 108.348 128.415 108.433 128.323 108.525C127.969 108.851 127.615 109.169 127.296 109.495C126.942 109.821 126.587 110.175 126.233 110.501C125.376 111.294 124.016 112.244 122.84 112.477C122.281 112.477 121.955 112.477 121.835 111.797C121.686 111.415 121.657 111.089 121.75 110.763C121.778 110.622 121.863 110.529 121.983 110.501C123.4 110.352 125.256 108.61 125.497 107.165C125.582 106.492 125.199 106.074 124.611 106.074C124.583 106.074 124.519 106.074 124.491 106.074C124.462 106.102 124.406 106.102 124.37 106.102C122.812 106.343 121.657 108.404 121.162 109.793C121.041 110.232 120.921 110.65 120.949 111.146C120.921 111.472 121.013 111.826 121.126 112.152C121.332 112.888 121.835 113.242 122.635 113.242ZM122.366 109.616C122.337 109.644 122.281 109.616 122.189 109.587C122.16 109.587 122.132 109.524 122.132 109.439C122.458 108.525 123.457 107.052 124.434 106.903C124.583 106.874 124.668 106.931 124.696 107.137C124.696 108.079 123.131 109.205 122.366 109.616Z" fill="#FFF6E9"/>
<path d="M78.4192 91.1922C78.4706 91.4331 78.5007 91.6916 78.5113 91.9643C78.5202 92.2335 78.4989 92.5027 78.4476 92.7718C78.3997 93.041 78.3147 93.2942 78.1926 93.5297C78.0739 93.7617 77.911 93.9601 77.7038 94.1247C77.5568 94.2434 77.3886 94.3372 77.2009 94.4081C77.0114 94.4789 76.8131 94.5356 76.6059 94.5781C76.4022 94.617 76.1986 94.6418 75.9967 94.656C75.7931 94.6649 75.6001 94.6702 75.4159 94.6702C75.3397 94.6702 75.2618 94.6631 75.1821 94.6489C75.106 94.6312 75.044 94.5922 74.998 94.5356C74.9502 94.4789 74.9147 94.4152 74.8917 94.3443C74.8722 94.27 74.8581 94.192 74.8492 94.1106C74.8439 94.0256 74.8421 93.9441 74.8421 93.8627C74.8421 93.7777 74.8386 93.7033 74.8351 93.636C74.8297 93.5705 74.828 93.4518 74.828 93.2818C74.828 93.1083 74.8297 92.9064 74.8351 92.6797C74.8386 92.4495 74.8439 92.1981 74.8492 91.9289C74.8581 91.6597 74.8652 91.3977 74.8705 91.1427C74.8793 90.8841 74.8846 90.6397 74.8846 90.4131C74.8882 90.1864 74.8917 90.0005 74.8917 89.8535C74.8917 89.811 74.8917 89.7685 74.8917 89.726C74.8953 89.6835 74.9077 89.6445 74.9271 89.6056C74.9838 89.4887 75.0865 89.4143 75.2388 89.386C75.3752 89.3541 75.5221 89.3417 75.678 89.3506C75.8373 89.3612 75.9631 89.3718 76.0534 89.386C76.2801 89.4055 76.4996 89.4427 76.7121 89.4993C76.9282 89.5525 77.1389 89.6304 77.3426 89.7331C77.6294 89.8854 77.8667 90.0872 78.0509 90.3422C78.2351 90.5937 78.3572 90.877 78.4192 91.1922ZM77.2434 93.636C77.4028 93.4996 77.5338 93.335 77.633 93.1402C77.7321 92.9471 77.803 92.7417 77.8455 92.5239C77.888 92.3026 77.9021 92.0812 77.888 91.8581C77.8738 91.6314 77.8384 91.4225 77.7817 91.2277C77.6684 90.893 77.486 90.6433 77.2363 90.4768C76.9848 90.3068 76.6997 90.1829 76.3792 90.1014C76.2376 90.0695 76.0959 90.0483 75.9542 90.0377C75.8161 90.0288 75.6744 90.0235 75.5292 90.0235C75.5151 90.0235 75.5027 90.1085 75.4938 90.2785C75.4832 90.445 75.4761 90.6575 75.4726 90.916C75.4726 91.171 75.4726 91.4543 75.4726 91.766C75.4761 92.0777 75.4832 92.3822 75.4938 92.6797C75.5027 92.9737 75.5151 93.2393 75.5292 93.4802C75.5469 93.7175 75.5664 93.8892 75.5859 93.9972C75.5859 94.0026 75.616 94.0026 75.678 93.9972C75.7435 93.9937 75.8143 93.9866 75.8905 93.976C75.9648 93.9618 76.0357 93.9512 76.103 93.9406C76.1685 93.9264 76.211 93.9193 76.2305 93.9193C76.3102 93.9105 76.3969 93.8981 76.4926 93.8839C76.5917 93.8662 76.6873 93.845 76.783 93.8202C76.8821 93.7971 76.9707 93.7688 77.0521 93.7352C77.1318 93.7033 77.1956 93.6696 77.2434 93.636Z" fill="#FFF6E9"/>
<path d="M87.7857 93.5156C87.7998 93.6147 87.8158 93.7245 87.8353 93.8414C87.853 93.9547 87.8636 94.0663 87.8636 94.1743C87.8636 94.2788 87.8441 94.3691 87.8069 94.4435C87.7733 94.5196 87.7095 94.5639 87.6157 94.5781C87.5059 94.6028 87.4209 94.6117 87.3607 94.6064C87.304 94.5975 87.258 94.5674 87.2261 94.5143C87.1924 94.4629 87.1694 94.3797 87.1553 94.2664C87.1411 94.1531 87.1216 93.9954 87.0986 93.7918C87.0933 93.7458 87.0844 93.6537 87.0703 93.5156C87.0561 93.3739 87.0384 93.211 87.0207 93.0268C87.0012 92.8391 86.9799 92.6372 86.9569 92.4247C86.9321 92.2087 86.9091 91.9997 86.8861 91.8014C86.8613 91.5995 86.8383 91.4118 86.8153 91.2418C86.7905 91.0718 86.7728 90.9408 86.7586 90.8451C86.7249 90.9585 86.6612 91.1037 86.5673 91.2772C86.4717 91.4525 86.3708 91.6314 86.2628 91.8156C86.153 91.9997 86.0503 92.1803 85.9511 92.3539C85.8519 92.5239 85.7758 92.6656 85.7244 92.7789C85.6819 92.8692 85.6483 92.9347 85.6253 92.9772C85.6058 93.0197 85.5845 93.0516 85.5615 93.0693C85.5367 93.0835 85.5084 93.0941 85.4765 93.0976C85.4482 93.0976 85.4074 93.103 85.3561 93.1118C85.2888 93.126 85.2357 93.1242 85.1932 93.1047C85.1507 93.087 85.1117 93.0587 85.0798 93.0197C85.0515 92.9825 85.0249 92.94 85.0019 92.8922C84.9824 92.8409 84.9612 92.7931 84.9382 92.7506C84.7823 92.4584 84.6141 92.1697 84.4353 91.8864C84.2599 91.5995 84.0899 91.3162 83.9253 91.0364C83.9146 91.2737 83.904 91.5305 83.8898 91.8085C83.8792 92.0883 83.8721 92.3716 83.8686 92.6585C83.8686 92.9418 83.8704 93.2163 83.8757 93.4801C83.8792 93.7458 83.8916 93.9813 83.9111 94.1885C83.9199 94.2876 83.9129 94.3762 83.8898 94.4506C83.865 94.5214 83.8013 94.5781 83.6986 94.6206C83.5658 94.6666 83.4578 94.6666 83.3728 94.6206C83.2878 94.5692 83.2382 94.47 83.224 94.3231C83.1992 94.022 83.185 93.6926 83.1815 93.3385C83.1815 92.9808 83.1833 92.6195 83.1886 92.2547C83.1974 91.8917 83.2098 91.5393 83.224 91.1993C83.2417 90.8558 83.2594 90.5406 83.2736 90.2572C83.2771 90.1545 83.2807 90.0412 83.2807 89.9172C83.2807 89.795 83.3055 89.6817 83.3586 89.5772C83.4383 89.4125 83.5428 89.3346 83.6703 89.3435C83.7978 89.3541 83.9005 89.4338 83.9819 89.5843C84.0953 89.7933 84.2121 89.9951 84.3361 90.1935C84.4636 90.3883 84.5858 90.5866 84.7044 90.7885C84.8266 90.9868 84.9399 91.1905 85.0444 91.3976C85.1524 91.6013 85.2445 91.8156 85.3207 92.0422C85.3632 91.9678 85.4163 91.8545 85.4836 91.7022C85.5544 91.5517 85.6323 91.3835 85.7173 91.1993C85.8059 91.0151 85.898 90.8274 85.9936 90.6326C86.0874 90.4396 86.1742 90.2608 86.2557 90.0943C86.3407 89.9296 86.4133 89.7897 86.4753 89.6764C86.5355 89.5595 86.5833 89.4887 86.6169 89.4639C86.7161 89.3895 86.8294 89.3576 86.9569 89.3718C87.088 89.386 87.173 89.4603 87.2119 89.5914C87.2969 89.8995 87.3607 90.213 87.4032 90.5335C87.4492 90.8505 87.4953 91.1639 87.5378 91.4756C87.6316 92.1414 87.7148 92.8214 87.7857 93.5156Z" fill="#FFF6E9"/>
<path d="M95.1614 89.4285C95.2128 89.4392 95.2677 89.4569 95.3244 89.4852C95.3846 89.51 95.4377 89.5401 95.4802 89.5773C95.5227 89.6162 95.5546 89.6605 95.5794 89.7119C95.6077 89.7597 95.6148 89.8181 95.6006 89.889C95.5811 89.9651 95.5528 90.0218 95.5156 90.059C95.482 90.0926 95.4395 90.1138 95.3881 90.1227C95.3403 90.1333 95.2854 90.1333 95.2252 90.1227C95.1685 90.1138 95.1136 90.1015 95.0623 90.0873C94.9295 90.0448 94.7949 90.0235 94.6585 90.0235C94.5204 90.02 94.384 90.0165 94.2477 90.0165C94.2424 90.1156 94.2406 90.2838 94.2406 90.5194C94.2406 90.7567 94.2406 91.0258 94.2406 91.3269C94.2406 91.6297 94.2406 91.9484 94.2406 92.2831C94.2442 92.6143 94.2477 92.9259 94.2477 93.2181C94.2477 93.5068 94.2477 93.7565 94.2477 93.969C94.2512 94.1779 94.2548 94.3072 94.2548 94.3585C94.2548 94.4683 94.2211 94.548 94.1556 94.5994C94.0883 94.6472 94.0139 94.6702 93.9289 94.6702C93.8439 94.6702 93.7678 94.6472 93.7023 94.5994C93.635 94.548 93.6031 94.4683 93.6031 94.3585C93.6031 94.3072 93.6031 94.1779 93.6031 93.969C93.6031 93.7565 93.5996 93.5068 93.596 93.2181C93.5907 92.9312 93.5889 92.6214 93.5889 92.2902C93.5889 91.9608 93.5889 91.6438 93.5889 91.341C93.5889 91.04 93.5889 90.7708 93.5889 90.5335C93.5889 90.298 93.5925 90.1298 93.6031 90.0306C93.2525 90.0501 92.9036 90.0802 92.5548 90.1227C92.4592 90.1333 92.3653 90.1209 92.2714 90.0873C92.1811 90.0501 92.1245 89.9793 92.1014 89.8748C92.082 89.7898 92.0979 89.7101 92.151 89.634C92.2077 89.5596 92.2785 89.5135 92.3635 89.4994C92.7832 89.4285 93.2135 89.3843 93.6527 89.3648C94.0954 89.3471 94.531 89.3577 94.956 89.4002C94.9844 89.4055 95.0145 89.4108 95.0481 89.4144C95.08 89.4144 95.1189 89.4197 95.1614 89.4285Z" fill="#FFF6E9"/>
</svg>
