<svg xmlns="http://www.w3.org/2000/svg" xmlns:xlink="http://www.w3.org/1999/xlink" width="500" zoomAndPan="magnify" viewBox="0 0 375 374.999991" height="500" preserveAspectRatio="xMidYMid meet" version="1.0"><defs><clipPath id="c456e461da"><path d="M 113 139 L 262 139 L 262 235.703125 L 113 235.703125 Z M 113 139 " clip-rule="nonzero"/></clipPath></defs><rect x="-37.5" width="450" fill="#ffffff" y="-37.499999" height="449.999989" fill-opacity="1"/><rect x="-37.5" width="450" fill="#ffffff" y="-37.499999" height="449.999989" fill-opacity="1"/><g clip-path="url(#c456e461da)"><path fill="#c5c5c5" d="M 165.914062 187.992188 C 165.914062 186.125 166.152344 184.316406 166.597656 182.589844 L 192.824219 208.820312 C 191.097656 209.265625 189.289062 209.503906 187.421875 209.503906 C 175.542969 209.503906 165.914062 199.875 165.914062 187.992188 Z M 187.425781 166.480469 C 185.558594 166.480469 183.75 166.71875 182.023438 167.164062 L 208.253906 193.394531 C 208.699219 191.667969 208.9375 189.855469 208.9375 187.992188 C 208.9375 176.109375 199.304688 166.480469 187.425781 166.480469 Z M 187.425781 149.851562 C 180.546875 149.851562 173.890625 150.929688 167.570312 152.710938 L 175.675781 160.816406 C 179.277344 159.257812 183.25 158.386719 187.425781 158.386719 C 203.773438 158.386719 217.027344 171.640625 217.027344 187.992188 C 217.027344 192.167969 216.160156 196.136719 214.597656 199.738281 L 228.9375 214.078125 C 248.714844 202.902344 261.71875 187.992188 261.71875 187.992188 C 261.71875 187.992188 228.457031 149.851562 187.425781 149.851562 Z M 199.171875 215.164062 C 195.570312 216.722656 191.601562 217.59375 187.425781 217.59375 C 171.074219 217.59375 157.820312 204.335938 157.820312 187.988281 C 157.820312 183.8125 158.691406 179.84375 160.25 176.242188 L 145.914062 161.902344 C 126.136719 173.082031 113.132812 187.992188 113.132812 187.992188 C 113.132812 187.992188 146.394531 226.128906 187.425781 226.128906 C 194.304688 226.128906 200.960938 225.054688 207.28125 223.269531 Z M 233.921875 234.492188 C 236.050781 232.363281 236.050781 228.910156 233.921875 226.78125 L 148.238281 141.09375 C 146.109375 138.964844 142.65625 138.964844 140.527344 141.09375 C 138.394531 143.222656 138.394531 146.675781 140.527344 148.808594 L 226.210938 234.492188 C 227.273438 235.558594 228.671875 236.089844 230.070312 236.089844 C 231.464844 236.089844 232.859375 235.558594 233.921875 234.492188 Z M 233.921875 234.492188 " fill-opacity="1" fill-rule="nonzero"/></g></svg>