<svg width="700" height="504" viewBox="0 0 700 504" fill="none" xmlns="http://www.w3.org/2000/svg">
<g clip-path="url(#clip0_48_2)">
<path d="M311.47 274.38C311.723 272.815 311.686 271.203 311.363 269.657C311.039 268.111 310.435 266.668 309.595 265.431C308.754 264.194 307.697 263.193 306.498 262.497C305.299 261.802 303.987 261.429 302.655 261.406L294.958 238.255L282.054 240.418L293.308 272.929C293.423 275.608 294.356 278.145 295.931 280.057C297.505 281.969 299.611 283.124 301.85 283.303C304.088 283.481 306.304 282.672 308.077 281.027C309.85 279.383 311.057 277.018 311.47 274.38Z" fill="#E0A899"/>
<path d="M287.697 266.245L283.698 254.842L258.782 198.119L260.137 93.1604L260.397 93.1191C276.34 90.5999 287.127 178.457 287.579 182.199L303.321 246.591L307.068 260.784L287.697 266.245Z" fill="white"/>
<path d="M249.412 487.568L261.527 487.567L267.289 431.682L249.41 431.683L249.412 487.568Z" fill="#E0A899"/>
<path d="M246.322 482.837L270.179 482.836C274.212 482.836 278.08 484.752 280.931 488.162C283.782 491.572 285.384 496.197 285.384 501.019V501.61L246.323 501.612L246.322 482.837Z" fill="#71757A"/>
<path d="M138.027 465.493L147.966 473.776L179.41 431.868L164.74 419.642L138.027 465.493Z" fill="#E0A899"/>
<path d="M137.753 459.499L157.327 475.812L157.327 475.813C160.635 478.57 162.892 482.786 163.601 487.533C164.31 492.281 163.414 497.171 161.109 501.127L160.826 501.612L128.778 474.903L137.753 459.499Z" fill="#71757A"/>
<path d="M242.755 474.432L242.231 369.596L234.609 303.676L220.398 361.646L220.37 361.694L168.872 451.113L148.833 438.97L148.943 438.658C150.167 435.174 179.024 353.355 186.78 353.355C187.457 353.412 188.136 353.271 188.758 352.944C189.379 352.618 189.925 352.115 190.348 351.48C192.625 347.844 190.771 340.129 190.752 340.052C188.532 329.04 194.114 325.29 195.226 324.664L198.217 250.826L198.527 250.852L279.604 257.654L276.202 349.97L268.886 470.924L268.634 470.958L242.755 474.432Z" fill="#F3F4F6"/>
<path d="M280.842 274.015L280.492 273.981L193.296 265.575L193.511 231.069L197.779 140.973L197.803 140.91L215.183 95.7823L227.504 89.11L245.479 87.9786L245.523 87.9918L261.927 92.8527L278.992 239.366L280.842 274.015Z" fill="white"/>
<path d="M248.296 76.4132C259.421 69.1394 263.51 52.4562 257.428 39.1501C251.346 25.844 237.397 20.9539 226.272 28.2277C215.146 35.5014 211.057 52.1847 217.139 65.4907C223.221 78.7968 237.17 83.687 248.296 76.4132Z" fill="#E0A899"/>
<path d="M214.195 59.2129V48.5148C214.195 48.5148 206.982 38.3538 214.917 35.7942C214.917 35.7942 217.081 10.1986 235.836 22.1432C235.836 22.1432 261.805 17.0241 258.919 34.941C258.919 34.941 265.411 30.2635 263.247 42.2081L259.062 61.4488C259.062 61.4488 261.083 48.739 254.591 47.0325L250.984 44.473C250.984 44.473 240.885 56.4176 225.737 41.9134C225.737 41.9134 219.245 40.0602 219.966 47.7389C220.687 55.4176 214.195 59.2129 214.195 59.2129Z" fill="#2F2F2F"/>
<path d="M234.893 248.247C234.908 246.653 234.63 245.075 234.079 243.624C233.529 242.172 232.719 240.883 231.706 239.846C230.694 238.81 229.504 238.051 228.22 237.624C226.936 237.197 225.589 237.112 224.275 237.375L213.229 216.252L200.859 221.15L216.808 250.717C217.324 253.329 218.623 255.624 220.458 257.167C222.294 258.71 224.539 259.394 226.768 259.09C228.998 258.785 231.056 257.513 232.553 255.515C234.051 253.516 234.883 250.93 234.893 248.247Z" fill="#E0A899"/>
<path d="M206.364 241.589L186.381 193.064L186.399 192.946C186.479 192.409 194.523 138.991 200.675 119.356C206.866 99.5964 215.341 95.6292 215.699 95.47L215.878 95.3904L223.476 104.108L212.95 188.136L224.296 228.662L206.364 241.589Z" fill="white"/>
<path d="M700 0H661.308V46.2761H700V0Z" fill="#F1F1F1"/>
<path d="M397.19 180.075H358.498V226.351H397.19V180.075Z" fill="#F1F1F1"/>
<path d="M380.215 206.072H686.116V20.8584H380.215V206.072Z" fill="white"/>
<path d="M688.639 209.09H377.692V17.8403H688.639V209.09ZM382.738 203.054H683.592V23.8763H382.738V203.054Z" fill="#E5E5E5"/>
<path d="M652.289 85.828H416.933V95.1629H652.289V85.828Z" fill="#E5E5E5"/>
<path d="M652.289 108.466H416.933V117.801H652.289V108.466Z" fill="#E5E5E5"/>
<path d="M652.289 141.892H608.55V149.993H652.289V141.892Z" fill="#3B586C"/>
</g>
<defs>
<clipPath id="clip0_48_2">
<rect width="700" height="503.36" fill="white"/>
</clipPath>
</defs>
</svg>
