<svg width="665" height="600" viewBox="0 0 665 600" fill="none" xmlns="http://www.w3.org/2000/svg">
<path d="M520.142 123.339H110.029C104.361 123.339 99.7492 118.062 99.7492 111.576V75.4221C99.7492 68.9361 104.361 63.6593 110.029 63.6593H520.142C525.81 63.6593 530.422 68.9361 530.422 75.4221V111.576C530.422 118.062 525.81 123.339 520.142 123.339Z" fill="white" stroke="#BAB7C9" stroke-width="2" stroke-linecap="round" stroke-linejoin="round"/>
<path d="M520.142 346.214H110.029C104.361 346.214 99.7492 340.937 99.7492 334.451V298.297C99.7492 291.811 104.361 286.534 110.029 286.534H520.142C525.81 286.534 530.422 291.811 530.422 298.297V334.451C530.422 340.937 525.81 346.214 520.142 346.214Z" fill="white" stroke="#BAB7C9" stroke-width="2" stroke-linecap="round" stroke-linejoin="round"/>
<path d="M230.542 505.333H109.239C104.564 505.333 100.369 500.785 100.369 494.679V457.321C100.369 451.215 104.564 446.667 109.239 446.667H230.542C235.217 446.667 239.412 451.215 239.412 457.321V494.679C239.412 500.785 235.217 505.333 230.542 505.333Z" fill="#71757A" fill-opacity="0.35" stroke="#3B586C" stroke-width="3"/>
<path d="M100.65 224.329H267.735" stroke="#BAB7C9" stroke-width="2" stroke-linecap="round" stroke-linejoin="round"/>
<path d="M470.525 534.24L456.381 544.586L469.206 567.544L483.351 557.197L470.525 534.24Z" fill="#E0A899"/>
<path d="M425.667 225.633L407.8 232.614L407.52 203.093L423.779 202.886L425.667 225.633Z" fill="#E0A899"/>
<path d="M409.606 211.245C419.473 211.245 427.473 202.091 427.473 190.8C427.473 179.508 419.473 170.355 409.606 170.355C399.738 170.355 391.738 179.508 391.738 190.8C391.738 202.091 399.738 211.245 409.606 211.245Z" fill="#E0A899"/>
<path d="M414.495 188.715C411.51 188.649 409.507 185.224 408.311 182.073C407.116 178.94 405.887 175.318 403.108 174.044C400.833 173.006 396.908 180.252 395.094 178.365C393.206 176.393 394.929 166.09 396.9 164.232C398.87 162.373 401.575 161.977 404.114 161.798C410.339 161.392 416.598 161.883 422.716 163.269C426.492 164.119 430.4 165.43 433.146 168.515C436.634 172.431 437.573 178.393 437.87 183.969C438.184 189.677 437.945 195.659 435.57 200.697C433.187 205.726 428.149 209.471 423.26 208.264C422.74 205.235 423.202 202.131 423.367 199.036C423.532 195.961 423.293 192.64 421.627 190.206C419.962 187.771 416.449 186.847 414.561 189.045" fill="#2F2F2F"/>
<path d="M436.543 195.517C438.316 193.998 440.435 192.715 442.636 192.998C445.019 193.291 447.047 195.517 447.682 198.159C448.317 200.801 447.657 203.725 446.215 205.914C444.772 208.103 442.603 209.556 440.294 210.301C438.959 210.735 437.499 210.915 436.213 210.301C434.325 209.396 433.286 206.669 434.003 204.471" fill="#2F2F2F"/>
<path d="M370.053 388.664C368.932 395.391 371.166 401.505 375.058 402.307C378.942 403.109 383.007 398.297 384.136 391.57C384.623 388.891 384.516 386.117 383.823 383.485L397.568 278.043L379.049 274.306L372.956 381.258C371.463 383.447 370.466 385.985 370.053 388.693L370.053 388.664Z" fill="#E0A899"/>
<path d="M407.47 219.066L394.855 219.227C385.95 220.878 383.584 226.359 381.663 236.436C378.719 251.805 374.959 272.287 375.751 272.57C377.012 273.042 398.59 284.326 409.515 281.533L407.478 219.066L407.47 219.066Z" fill="white"/>
<path d="M422.964 554.199L406.178 554.413L406.444 581.659L423.23 581.444L422.964 554.199Z" fill="#E0A899"/>
<path d="M390.213 598.369C388.44 598.398 386.882 598.369 385.694 598.256C381.225 597.851 376.946 594.133 374.778 591.963C373.805 590.991 373.483 589.406 373.97 588.048C374.316 587.076 375.025 586.331 375.915 586.019L387.665 582.019L406.604 567.046L406.819 567.48C406.901 567.641 408.814 571.481 409.465 574.085C409.713 575.075 409.663 575.896 409.301 576.538C409.053 576.981 408.707 577.245 408.427 577.405C408.773 577.811 409.861 578.641 413.209 579.207C418.074 580.038 419.055 574.245 419.088 574L419.121 573.801L419.261 573.688C421.561 571.943 422.971 571.16 423.466 571.32C423.779 571.414 424.282 571.594 425.816 587.293C425.956 587.784 426.962 591.388 426.335 594.86C425.659 598.634 411.271 597.511 408.402 597.256C408.319 597.265 397.568 598.284 390.196 598.369H390.221L390.213 598.369Z" fill="#71757A"/>
<path d="M452.193 593.841C450.222 593.869 448.408 593.614 447.114 593.369C445.844 593.124 444.838 591.982 444.623 590.529C444.459 589.482 444.731 588.435 445.333 587.642L453.446 577.132L462.582 552.96L462.969 553.196C463.109 553.281 466.506 555.385 468.271 557.196C468.939 557.885 469.277 558.612 469.277 559.385C469.277 559.914 469.104 560.348 468.93 560.64C469.417 560.772 470.72 560.81 473.82 559.272C478.33 557.027 476.483 551.517 476.401 551.3L476.335 551.111L476.409 550.941C477.555 548.073 478.396 546.545 478.882 546.375C479.196 546.28 479.699 546.101 488.266 558.498C488.612 558.829 491.135 561.272 492.207 564.593C493.369 568.207 480.663 575.962 478.091 577.481C478.017 577.556 464.734 588.85 459.275 592.086C457.107 593.369 454.526 593.794 452.176 593.812L452.201 593.841L452.193 593.841Z" fill="#71757A"/>
<path d="M433.08 326.131L386.082 326.726L382.306 376.805L402.762 561.423L426.756 561.112L416.128 454.471L455.985 550.375L477.143 533.015L445.877 443.404C445.877 443.404 455.977 364.87 447.254 345.453C438.538 326.037 433.088 326.103 433.088 326.103V326.131L433.08 326.131Z" fill="#F3F4F6"/>
<path d="M456.48 328.886L381.836 329.839L403.158 219.132L435.686 218.708L456.48 328.886Z" fill="white"/>
<path d="M463.769 387.476C465.022 394.184 462.903 400.345 459.036 401.241C455.161 402.147 451.005 397.439 449.76 390.731C449.224 388.061 449.274 385.287 449.909 382.636L434.111 277.561L452.547 273.354L460.718 380.135C462.252 382.287 463.299 384.806 463.769 387.494V387.476Z" fill="#E0A899"/>
<path d="M423.078 218.868L435.694 218.708C444.623 220.142 447.097 225.557 449.224 235.586C452.464 250.88 456.612 271.25 455.837 271.561C454.575 272.052 433.237 283.883 422.262 281.373L423.095 218.868L423.078 218.868Z" fill="white"/>
</svg>
