<svg width="34" height="32" viewBox="0 0 34 32" fill="none" xmlns="http://www.w3.org/2000/svg">
<path d="M15.7283 15.2227C16.1536 15.6723 16.8464 15.6723 17.2778 15.2227L23.895 8.28343C25.8151 6.26607 25.7057 2.92405 23.5547 1.06468C21.6832 -0.557718 18.8941 -0.266052 17.1806 1.53256L16.5 2.2435L15.8255 1.53864C14.112 -0.266052 11.3229 -0.557718 9.45139 1.06468C7.30642 2.92405 7.19097 6.26607 9.11111 8.28343L15.7283 15.2227ZM33.3498 19.9379C32.6328 19.2878 31.5148 19.3303 30.7613 19.9379L25.1467 24.4284C24.4601 24.9813 23.6033 25.2791 22.7161 25.2791H15.5278C14.9931 25.2791 14.5556 24.8416 14.5556 24.3069C14.5556 23.7721 14.9931 23.3346 15.5278 23.3346H20.2856C21.2517 23.3346 22.151 22.6723 22.309 21.7183C22.5095 20.503 21.5738 19.4458 20.3889 19.4458H10.6667C9.02604 19.4458 7.4401 20.0109 6.16406 21.0438L3.33854 23.3346H-0.0277779C-0.5625 23.3346 -1 23.7721 -1 24.3069V30.1402C-1 30.6749 -0.5625 31.1124 -0.0277779 31.1124H21.6528C22.5339 31.1124 23.3906 30.8147 24.0833 30.2617L33.2708 22.9093C34.1944 22.1741 34.2674 20.7643 33.3498 19.9379Z" fill="white"/>
</svg>
