<svg width="35" height="35" viewBox="0 0 35 35" fill="none" xmlns="http://www.w3.org/2000/svg">
<path d="M34.0625 32.8125H32.5V1.64062C32.5 0.734521 31.6605 0 30.625 0H4.375C3.33945 0 2.5 0.734521 2.5 1.64062V32.8125H0.9375C0.419766 32.8125 0 33.1798 0 33.6328V35H35V33.6328C35 33.1798 34.5802 32.8125 34.0625 32.8125ZM10 5.19531C10 4.74229 10.4198 4.375 10.9375 4.375H14.0625C14.5802 4.375 15 4.74229 15 5.19531V7.92969C15 8.3827 14.5802 8.75 14.0625 8.75H10.9375C10.4198 8.75 10 8.3827 10 7.92969V5.19531ZM10 11.7578C10 11.3048 10.4198 10.9375 10.9375 10.9375H14.0625C14.5802 10.9375 15 11.3048 15 11.7578V14.4922C15 14.9452 14.5802 15.3125 14.0625 15.3125H10.9375C10.4198 15.3125 10 14.9452 10 14.4922V11.7578ZM14.0625 21.875H10.9375C10.4198 21.875 10 21.5077 10 21.0547V18.3203C10 17.8673 10.4198 17.5 10.9375 17.5H14.0625C14.5802 17.5 15 17.8673 15 18.3203V21.0547C15 21.5077 14.5802 21.875 14.0625 21.875ZM20 32.8125H15V27.0703C15 26.6173 15.4198 26.25 15.9375 26.25H19.0625C19.5802 26.25 20 26.6173 20 27.0703V32.8125ZM25 21.0547C25 21.5077 24.5802 21.875 24.0625 21.875H20.9375C20.4198 21.875 20 21.5077 20 21.0547V18.3203C20 17.8673 20.4198 17.5 20.9375 17.5H24.0625C24.5802 17.5 25 17.8673 25 18.3203V21.0547ZM25 14.4922C25 14.9452 24.5802 15.3125 24.0625 15.3125H20.9375C20.4198 15.3125 20 14.9452 20 14.4922V11.7578C20 11.3048 20.4198 10.9375 20.9375 10.9375H24.0625C24.5802 10.9375 25 11.3048 25 11.7578V14.4922ZM25 7.92969C25 8.3827 24.5802 8.75 24.0625 8.75H20.9375C20.4198 8.75 20 8.3827 20 7.92969V5.19531C20 4.74229 20.4198 4.375 20.9375 4.375H24.0625C24.5802 4.375 25 4.74229 25 5.19531V7.92969Z" fill="white"/>
</svg>
