<svg width="36" height="45" viewBox="0 0 36 45" fill="none" xmlns="http://www.w3.org/2000/svg">
<path d="M16.4176 44.0921C3.17433 25.5789 0.716125 23.6789 0.716125 16.875C0.716125 7.55516 8.55111 0 18.2161 0C27.8811 0 35.7161 7.55516 35.7161 16.875C35.7161 23.6789 33.2579 25.5789 20.0146 44.0921C19.1455 45.3027 17.2866 45.3026 16.4176 44.0921ZM18.2161 23.9062C22.2432 23.9062 25.5078 20.7583 25.5078 16.875C25.5078 12.9917 22.2432 9.84375 18.2161 9.84375C14.189 9.84375 10.9245 12.9917 10.9245 16.875C10.9245 20.7583 14.189 23.9062 18.2161 23.9062Z" fill="#2C3E50"/>
</svg>
