<svg width="36" height="35" viewBox="0 0 36 35" fill="none" xmlns="http://www.w3.org/2000/svg">
<path d="M31.4036 0H3.90363C1.83331 0 0.153625 1.67969 0.153625 3.75V31.25C0.153625 33.3203 1.83331 35 3.90363 35H31.4036C33.4739 35 35.1536 33.3203 35.1536 31.25V3.75C35.1536 1.67969 33.4739 0 31.4036 0ZM18.9036 22.5H15.1536V26.25C15.1536 26.9375 14.5911 27.5 13.9036 27.5H11.4036C10.7161 27.5 10.1536 26.9375 10.1536 26.25V8.75C10.1536 8.0625 10.7161 7.5 11.4036 7.5H18.9036C23.0364 7.5 26.4036 10.8672 26.4036 15C26.4036 19.1328 23.0364 22.5 18.9036 22.5ZM18.9036 12.5H15.1536V17.5H18.9036C20.2786 17.5 21.4036 16.375 21.4036 15C21.4036 13.625 20.2786 12.5 18.9036 12.5Z" fill="#2C3E50"/>
</svg>
