<svg width="45" height="37" viewBox="0 0 45 37" fill="none" xmlns="http://www.w3.org/2000/svg">
<path d="M44.6421 10.1486C32.1848 -3.38534 12.8102 -3.38038 0.357831 10.1486C-0.110451 10.6573 -0.119591 11.5187 0.333222 12.0465L2.74072 14.852C3.17244 15.3558 3.86713 15.3666 4.31572 14.8834C14.5757 3.84288 30.4228 3.8404 40.6849 14.8834C41.1335 15.3666 41.8282 15.355 42.2599 14.852L44.6674 12.0465C45.1195 11.5187 45.1104 10.6573 44.6421 10.1486ZM22.5 26.4286C20.0144 26.4286 18 28.7948 18 31.7143C18 34.6338 20.0144 37 22.5 37C24.9855 37 27 34.6338 27 31.7143C27 28.7948 24.9855 26.4286 22.5 26.4286ZM36.7502 19.5249C28.646 11.1066 16.3448 11.1157 8.24971 19.5249C7.76455 20.0287 7.74909 20.9033 8.20963 21.4369L10.6312 24.2441C11.0531 24.733 11.7323 24.766 12.1816 24.3102C18.0843 18.3167 26.9289 18.3299 32.8176 24.3102C33.2669 24.766 33.9461 24.7338 34.368 24.2441L36.7896 21.4369C37.2508 20.9033 37.2346 20.0279 36.7502 19.5249Z" fill="#2C3E50"/>
</svg>
